<svg id="Capa_1" enable-background="new 0 0 512.004 512.004" height="512" viewBox="0 0 512.004 512.004" width="512" xmlns="http://www.w3.org/2000/svg"><g><g><g><path d="m241.5 481.453v-349.14l30 1.242v347.898z" fill="#c8c3ca"/></g><path d="m338.5 131.453h-165.5l27.429-55.506 55.491-68.374h.16l54.654 67.117z" fill="#efedef"/><g fill="#dc4955"><path d="m255.92 7.573-82.92 123.88h-164.44c.42-.54.94-.99 1.55-1.33.14-.07.29-.14.44-.21l236.95-120.21c2.78-1.41 5.61-2.12 8.42-2.13z"/><path d="m255.92 7.573-.11.16-207.25 123.72h-40c.42-.54.94-.99 1.55-1.33.14-.07.29-.14.44-.21l236.95-120.21c2.78-1.41 5.61-2.12 8.42-2.13z"/><path d="m503.44 131.453h-164.94l-82.42-123.88c2.81.01 5.64.72 8.42 2.13l236.95 120.21c.15.07.3.14.44.21.61.34 1.13.79 1.55 1.33z"/></g><path d="m185.778 290.068c-19.152-11.045-43.285-8.201-59.344 6.994l-18.196 17.217c-4.137 3.915-4.174 10.489-.081 14.45l21.112 20.431c4.016 3.887 10.439 3.727 14.257-.355l11.809-12.624c6.224-6.654 16.158-8.26 24.162-3.907l4.005 2.178-47.16 80.218c-3.468 6.147-2.26 14.14 3.398 18.936 6.26 5.306 15.704 4.37 21.223-1.703l38.975-42.89c13.267-14.6 32.078-22.924 51.806-22.924h13.517c19.727 0 38.539 8.324 51.806 22.924l38.975 42.89c5.519 6.073 14.963 7.009 21.223 1.703 5.659-4.796 6.867-12.789 3.398-18.936l-38.967-69.118c-2.526-4.481-3.208-9.72-1.992-14.631.433-1.748 1.193-3.398 2.118-4.944l14.681-24.526 22.144 17.858c2.459 2.641 5.906 4.142 9.515 4.142h6.341c7.18 0 13-5.82 13-13v-1.302c0-18.124-4.926-35.908-14.251-51.45l-5.474-9.123c-2.797-4.662-4.275-9.998-4.275-15.435v-4.849c0-3.952-3.754-6.824-7.568-5.791l-19.73 5.344c-13.219 3.58-24.39 12.425-30.906 24.47l-11.452 21.169c-6.988 12.918-20.494 20.967-35.182 20.967h-77.238c-5.193 0-10.297-1.348-14.813-3.912z" fill="#e9a761"/><path d="m375.93 222.503-19.73 5.34c-13.22 3.58-24.39 12.43-30.9 24.47l-11.46 21.17c-6.99 12.92-20.49 20.97-35.18 20.97h20c14.69 0 28.19-8.05 35.18-20.97l11.46-21.17c6.51-12.04 17.68-20.89 30.9-24.47l6.84-1.85c-1.11-2.68-4.09-4.31-7.11-3.49z" fill="#e69642"/><path d="m156.34 414.673 44.851-76.293c1.263-2.148.497-4.915-1.691-6.107-6.23-3.39-16 2.18-16 2.18l-47.16 80.22c-3.47 6.14-2.26 14.14 3.4 18.93 5.72 4.86 14.11 4.49 19.72-.25-5.42-4.81-6.53-12.64-3.12-18.68zm-12.81-65.87 2.55-2.73-17.92-17.34c-4.1-3.96-4.06-10.54.08-14.45l18.19-17.22c6.96-6.59 15.44-10.85 24.37-12.67-15.65-3.2-32.3 1.24-44.37 12.67l-18.19 17.22c-4.14 3.91-4.18 10.49-.08 14.45l21.11 20.43c4.01 3.88 10.44 3.72 14.26-.36z" fill="#e69642"/><path d="m90.25 131.453v9.63c0 22.85-18.52 41.37-41.37 41.37h-.01c-22.85 0-41.37-18.52-41.37-41.37v-6.56c0-1.16.39-2.23 1.06-3.07z" fill="#dc4955"/><path d="m131.625 182.453c-22.851 0-41.375-18.524-41.375-41.375v-9.625h82.75v9.625c0 22.851-18.524 41.375-41.375 41.375z" fill="#dc4955"/><path d="m214.375 182.453c-22.851 0-41.375-18.524-41.375-41.375v-9.625h82.75v9.625c0 22.851-18.524 41.375-41.375 41.375z" fill="#e3e0e4"/><path d="m297.125 182.453c-22.851 0-41.375-18.524-41.375-41.375v-9.625h82.75v9.625c0 22.851-18.524 41.375-41.375 41.375z" fill="#e3e0e4"/><path d="m379.875 182.453c-22.851 0-41.375-18.524-41.375-41.375v-9.625h82.75v9.625c0 22.851-18.524 41.375-41.375 41.375z" fill="#dc4955"/><path d="m504.5 134.523v6.56c0 22.85-18.52 41.37-41.37 41.37h-.51c-22.85 0-41.37-18.52-41.37-41.37v-9.63h82.19c.67.84 1.06 1.91 1.06 3.07z" fill="#dc4955"/><path d="m173 131.453v9.63c0 3.58-.45 7.06-1.31 10.37h-80.13c-.86-3.31-1.31-6.79-1.31-10.37v-9.63z" fill="#d82f3c"/><path d="m380.5 471.453 10 16.5-10 16.5h-83l-10-16.5 10-16.5z" fill="#efedef"/><path d="m214.5 471.453 10 18.947-10 14.053h-83l-10-16.5 10-16.5z" fill="#efedef"/><path d="m131.5 471.453v33h-78c-2.76 0-5-2.24-5-5v-8c0-11.05 8.95-20 20-20z" fill="#dc4955"/><path d="m68.5 491.453v8c0 2.76 2.24 5 5 5h-20c-2.76 0-5-2.24-5-5v-8c0-11.05 8.95-20 20-20h20c-11.05 0-20 8.95-20 20z" fill="#d82f3c"/><path d="m214.5 471.453h83v33h-83z" fill="#dc4955"/><path d="m463.5 491.453v8c0 2.76-2.24 5-5 5h-78v-33h63c11.05 0 20 8.95 20 20z" fill="#dc4955"/><path d="m504.5 134.523v6.56c0 3.58-.45 7.06-1.31 10.37h-80.63c-.86-3.31-1.31-6.79-1.31-10.37v-9.63h82.19c.67.84 1.06 1.91 1.06 3.07z" fill="#d82f3c"/><path d="m421.25 131.453v9.63c0 3.58-.45 7.06-1.31 10.37h-80.13c-.86-3.31-1.31-6.79-1.31-10.37v-9.63z" fill="#d82f3c"/><path d="m338.5 131.453v9.63c0 3.58-.45 7.06-1.31 10.37h-80.13c-.86-3.31-1.31-6.79-1.31-10.37v-9.63z" fill="#c8c3ca"/><path d="m255.75 131.453v9.63c0 3.58-.45 7.06-1.31 10.37h-80.13c-.86-3.31-1.31-6.79-1.31-10.37v-9.63z" fill="#c8c3ca"/><path d="m90.25 131.453v9.63c0 3.58-.45 7.06-1.31 10.37h-80.13c-.86-3.31-1.31-6.79-1.31-10.37v-6.56c0-1.16.39-2.23 1.06-3.07z" fill="#d82f3c"/><path d="m255.92 7.573-.11.16-207.25 123.72h-40c.42-.54.94-.99 1.55-1.33.14-.07.29-.14.44-.21l236.95-120.21c2.78-1.41 5.61-2.12 8.42-2.13z" fill="#d82f3c"/><path d="m255.92 7.573-41.545 123.88h-41.375z" fill="#c8c3ca"/></g><path d="m511.961 130.681c-.253-2.505-1.826-4.78-4.067-5.917l-240.01-121.756c-7.723-3.945-16.053-3.941-23.777.005l-90.791 46.058c-3.693 1.874-5.169 6.388-3.295 10.082 1.875 3.695 6.388 5.169 10.082 3.295l75.926-38.517-66.546 100.021h-79.233-51.388l90.022-45.668c3.694-1.874 5.17-6.388 3.296-10.082-1.874-3.695-6.388-5.169-10.082-3.295l-117.991 59.857c-2.476 1.25-4.125 3.907-4.106 6.688v9.625c0 26.95 21.925 48.875 48.875 48.875 17.412 0 32.716-9.159 41.375-22.905 8.659 13.746 23.963 22.905 41.375 22.905s32.716-9.159 41.375-22.905c8.659 13.746 23.963 22.905 41.375 22.905 6.978 0 13.614-1.48 19.625-4.127v25.127c0 4.142 3.357 7.5 7.5 7.5s7.5-3.358 7.5-7.5v-35.417c2.552-2.564 4.813-5.414 6.75-8.489 2.308 3.663 5.083 7.002 8.25 9.927v109.978h-15v-41c0-4.142-3.357-7.5-7.5-7.5s-7.5 3.358-7.5 7.5v41h-32.577c-3.887 0-7.729-1.015-11.108-2.933l-.789-.449c-21.857-12.604-49.921-9.297-68.246 8.043l-18.197 17.217c-3.45 3.266-5.444 7.863-5.472 12.614-.026 4.751 1.917 9.37 5.33 12.673l21.111 20.431c3.399 3.29 7.869 5.034 12.605 4.919 4.729-.118 9.113-2.085 12.346-5.54l11.809-12.624c3.136-3.353 7.78-4.654 12.081-3.608l-43.019 73.172c-.022.039-.045.077-.066.116-5.315 9.422-3.179 21.342 5.081 28.343 4.121 3.492 9.251 5.201 14.402 5.201 6.319 0 12.67-2.573 17.221-7.582l38.976-42.89c7.744-8.523 17.658-14.644 28.513-17.865v87.76h-125.002c-4.143 0-7.5 3.358-7.5 7.5s3.357 7.5 7.5 7.5h15v18h-68v-5.5c0-6.893 5.607-12.5 12.5-12.5h5.5c4.143 0 7.5-3.358 7.5-7.5s-3.357-7.5-7.5-7.5h-5.5c-15.163 0-27.5 12.336-27.5 27.5v8c0 6.893 5.607 12.5 12.5 12.5h405c6.893 0 12.5-5.607 12.5-12.5v-8c0-15.164-12.337-27.5-27.5-27.5h-164.5v-88.811c12.414 2.808 23.826 9.356 32.513 18.916l38.976 42.89c8.262 9.091 22.447 10.157 31.623 2.38 8.26-7.001 10.396-18.92 5.082-28.341l-12.565-22.289c-2.034-3.608-6.607-4.885-10.217-2.85-3.607 2.034-4.884 6.608-2.85 10.216l12.566 22.291c1.786 3.166 1.064 7.173-1.716 9.529-3.083 2.612-7.938 2.15-10.822-1.025l-38.976-42.89c-14.657-16.129-35.562-25.38-57.355-25.38h-13.518c-21.794 0-42.698 9.25-57.355 25.38l-38.976 42.89c-2.887 3.176-7.741 3.637-10.822 1.025-2.766-2.344-3.494-6.323-1.743-9.481l47.121-80.15c1.029-1.752 1.305-3.848.762-5.806-.544-1.958-1.858-3.613-3.645-4.583l-4.005-2.178c-11.001-5.983-24.664-3.776-33.222 5.372l-11.808 12.624c-.623.666-1.373.781-1.765.791-.381.015-1.146-.069-1.801-.703l-21.111-20.431c-.668-.646-.764-1.412-.762-1.81.003-.399.107-1.164.781-1.802l18.196-17.217c13.546-12.817 34.289-15.262 50.486-5.921l.833.474c5.634 3.199 12.037 4.89 18.516 4.89h77.238c17.462 0 33.47-9.541 41.778-24.898l11.452-21.169c5.513-10.19 15.088-17.771 26.271-20.8l17.84-4.828v2.889c0 6.796 1.848 13.467 5.344 19.293l5.474 9.124c8.624 14.373 13.182 30.83 13.182 47.591.451 3.437-1.855 6.835-5.5 6.802h-6.342c-1.973.074-3.503-1.148-4.806-2.479l-22.145-17.858c-1.69-1.363-3.883-1.928-6.024-1.546-2.137.381-4.004 1.669-5.119 3.532l-14.681 24.527c-1.412 2.358-2.381 4.645-2.963 6.992-1.692 6.836-.72 13.98 2.739 20.116l9.181 16.285c2.033 3.608 6.608 4.885 10.217 2.85 3.607-2.034 4.884-6.608 2.85-10.216l-9.181-16.285c-1.572-2.79-2.015-6.037-1.246-9.142.216-.871.645-1.846 1.274-2.897l10.251-17.125 15.062 12.146c3.836 3.885 9.119 6.101 14.591 6.101h6.342c11.812.04 21.158-10.061 20.5-21.802 0-19.479-5.298-38.604-15.319-55.308l-5.475-9.124c-2.098-3.496-3.206-7.499-3.206-11.576v-4.849c0-4.238-1.931-8.146-5.296-10.722-3.367-2.576-7.644-3.416-11.733-2.309l-19.73 5.344c-15.129 4.098-28.083 14.354-35.542 28.141l-11.452 21.169c-5.63 10.408-16.432 16.901-28.246 17.024v-100.488c5.609 2.249 11.722 3.499 18.125 3.499 17.412 0 32.716-9.159 41.375-22.905 8.659 13.746 23.963 22.905 41.375 22.905s32.716-9.159 41.375-22.905c8.725 13.883 24.324 23.091 41.875 22.905 26.95 0 48.875-21.925 48.875-48.875-.015-.174.037-10.617-.04-10.397zm-221.961 348.272v18h-68v-18zm15 0h68v18h-68zm-166 0h68v18h-68zm317 12.5v5.5h-68v-18h55.5c6.893 0 12.5 5.607 12.5 12.5zm-192-117.863v90.363h-15v-90.29c1.789-.131 12.981-.054 15-.073zm157.25-249.637h-78.732l-66.546-100.022 197.166 100.021h-51.888zm-165.5 0h-68.252l68.502-102.961 68.502 102.961zm-206.875 51c-18.679 0-33.875-15.197-33.875-33.875v-2.125h67.75v2.125c0 18.678-15.196 33.875-33.875 33.875zm82.75 0c-18.679 0-33.875-15.196-33.875-33.875v-2.125h67.75v2.125c0 18.678-15.196 33.875-33.875 33.875zm82.75 0c-18.679 0-33.875-15.196-33.875-33.875v-2.125h67.75v2.125c0 18.678-15.196 33.875-33.875 33.875zm82.75 0c-18.679 0-33.875-15.196-33.875-33.875v-2.125h67.75v2.125c0 18.678-15.196 33.875-33.875 33.875zm82.75 0c-18.679 0-33.875-15.196-33.875-33.875v-2.125h67.75v2.125c0 18.678-15.196 33.875-33.875 33.875zm117.125-33.875c.016 18.858-15.525 34.157-34.375 33.875-18.679 0-33.875-15.196-33.875-33.875v-2.125h68.25z"/></g></svg>